<svg xmlns="http://www.w3.org/2000/svg" viewBox="0 0 64 64">
  <defs>
    <radialGradient id="b" cx="50%" cy="38%" r="60%">
      <stop offset="0%" stop-color="#FFC9E2"/>
      <stop offset="100%" stop-color="#FFA6CF"/>
    </radialGradient>
  </defs>
  <!-- gills -->
  <g fill="#E066A0">
    <ellipse cx="12" cy="24" rx="6" ry="3" transform="rotate(-30 12 24)"/>
    <ellipse cx="9"  cy="34" rx="7" ry="3.5"/>
    <ellipse cx="12" cy="44" rx="7" ry="3.5" transform="rotate(22 12 44)" fill="#BF4F85"/>
    <ellipse cx="52" cy="24" rx="6" ry="3" transform="rotate(30 52 24)"/>
    <ellipse cx="55" cy="34" rx="7" ry="3.5"/>
    <ellipse cx="52" cy="44" rx="7" ry="3.5" transform="rotate(-22 52 44)" fill="#BF4F85"/>
  </g>
  <!-- body -->
  <ellipse cx="32" cy="34" rx="22" ry="20" fill="url(#b)"/>
  <!-- eyes -->
  <circle cx="24" cy="32" r="2.6" fill="#2D2533"/>
  <circle cx="40" cy="32" r="2.6" fill="#2D2533"/>
  <!-- cheeks -->
  <circle cx="20" cy="40" r="2.4" fill="#FF7AA3" opacity="0.45"/>
  <circle cx="44" cy="40" r="2.4" fill="#FF7AA3" opacity="0.45"/>
  <!-- mouth -->
  <path d="M27 42 Q32 46 37 42" stroke="#7A2D4D" stroke-width="1.8" fill="none" stroke-linecap="round"/>
</svg>
